<svg xmlns="http://www.w3.org/2000/svg" width="435" height="41" fill="none" viewBox="0 0 435 41">
  <path fill="#E4E66B" d="M11.988 12.339v16.308h15.747V12.34H11.988ZM30.445.889v.048c.602.326 2.832 2.531 6.69 6.617.797.472 1.554 1.229 2.27 2.27v21.24c0 .098-2.97 3.077-8.91 8.936l-.123-.024H.514v-.538l-.05-.097V.889h29.981ZM42.75.937c.016-.016.024-.032.024-.048l.489.048h37.036l.268-.048c.05.016.09.032.123.048h.439v.245c.065.065.098.13.098.195v11.84c-4.558 7.211-7.154 11.158-7.788 11.842H61.598v-.147c1.644-2.946 4.126-7.113 7.446-12.5v-.17H53.81v16.405h27.1c.21.033.317.139.317.318v10.547c0 .163-.163.325-.489.488H42.603c-.162 0-.325-.163-.488-.488V.937h.635Zm41.821 0h11.084c.212.033.318.139.318.318V28.94h15.307c.147 0 .31-.162.489-.488V23.57c0-.65-.057-.976-.171-.976l.171-1.636V1.255c.032-.212.138-.317.317-.317h10.913c.212.032.317.138.317.317V28.77c-6.201 6.087-10.164 9.83-11.889 11.23h-4.712c-.733 0-1.384-.057-1.953-.17-.57.113-1.221.17-1.953.17h-2.759c-.114 0-.171-.057-.171-.17l-.318.17h-3.588c-4.574-4.248-8.48-7.992-11.72-11.23V1.255c.034-.212.14-.317.318-.317ZM131.837 40h-5.274c-.211 0-.317-.106-.317-.317V1.255c.033-.212.138-.317.317-.317h11.499v39.086h-6.225V40Zm8.862-3.052V.815h35.352v.513c0 .016.008.033.024.049v10.547c0 .211-.106.317-.317.317h-23.364v16.407h21.582c1.399 0 2.099.162 2.099.488v10.376a.343.343 0 0 1-.049.195v.317h-35.351v-3.076h.024ZM179.225.938c.016-.017.024-.033.024-.05l.488.05h37.036l.269-.05c.049.017.09.033.122.05h.44v.244c.065.065.097.13.097.195v11.84c-4.557 7.211-7.153 11.158-7.788 11.842h-11.841v-.147c1.644-2.946 4.126-7.113 7.447-12.5v-.17h-15.235v16.405h27.1c.211.033.317.139.317.318v10.547c0 .163-.163.325-.488.488h-38.135c-.163 0-.325-.163-.488-.488V.937h.635Zm67.065 11.23-.049-.024h-13.037c-.211 0-.317-.114-.317-.342V1.206c.032-.212.138-.317.317-.317h38.306c.163 0 .325.162.488.488v10.425c0 .228-.106.342-.317.342h-13.282v27.88H246.29V12.168ZM275.245.888h11.084c.228.033.342.139.342.318v13.379h15.796V1.206c.032-.212.138-.317.317-.317h10.938c.211.032.317.138.317.317v16.48c-.032.13-2.962 2.897-8.789 8.3h-4.907v13.697c0 .211-.106.317-.318.317h-10.913c-.228 0-.341-.106-.341-.317v-13.38c0-.21-.106-.317-.318-.317h-4.394c-.57 0-1.604-.87-3.101-2.612-.146 0-2.157-2.01-6.03-6.03V1.206c.032-.212.138-.317.317-.317Zm42.334 0h29.663c5.876 5.648 8.814 8.53 8.814 8.643V25.67c0 .163-2.881 3.035-8.643 8.618h-18.579v5.396c0 .211-.106.317-.317.317h-10.938c-.211 0-.317-.106-.317-.317V1.206c.032-.212.138-.317.317-.317Zm11.255 11.402v10.596l-.171.317h15.82V12.29h-15.649ZM359.303.938c.016-.017.024-.033.024-.05l.488.05h37.037l.268-.05c.049.017.09.033.122.05h.44v.244c.065.065.097.13.097.195v11.84c-4.557 7.211-7.153 11.158-7.788 11.842H378.15v-.147c1.644-2.946 4.126-7.113 7.447-12.5v-.17h-15.235v16.405h27.1c.212.033.317.139.317.318v10.547c0 .163-.162.325-.488.488h-38.135c-.163 0-.325-.163-.488-.488V.937h.635Zm75.195 39.038-.049.024h-33.081c-.211 0-.317-.106-.317-.317v-10.45c0-.146.163-.309.488-.488 8.089.114 13.412.171 15.967.171-1.351-1.628-6.348-6.787-14.99-15.479-.082 0-.57-.545-1.465-1.635V1.206c.032-.212.138-.317.317-.317h32.935c.211.032.317.138.317.317v10.596c0 .228-.106.342-.317.342h-15.821v.146c7.764 8.09 13.192 13.623 16.285 16.602 0 .016.008.024.024.024v3.76c0 .537-.008 1.082-.024 1.636v4.15c.016.39.024.846.024 1.367l-.024.024v.123h-.269Z"/>
</svg>
