<svg width="541" height="33" viewBox="0 0 541 33" fill="none" xmlns="http://www.w3.org/2000/svg">
  <path id="dc676a14" d="M7.04688 31.9805L6.94922 32H0.425781C0.25651 32 0.171875 31.9154 0.171875 31.7461V1.00391C0.197917 0.834635 0.282552 0.75 0.425781 0.75H31.168C31.3372 0.776042 31.4219 0.860677 31.4219 1.00391V9.59766C31.4219 9.77995 31.3372 9.87109 31.168 9.87109H9.54688V14.168H26.4805C26.7409 14.2461 26.8711 14.5065 26.8711 14.9492V17.293C26.8711 17.5794 26.8255 17.7943 26.7344 17.9375L26.8711 18.7188V22.7617C26.8711 22.8919 26.6953 23.0612 26.3438 23.2695H9.54688V28.4844C9.54688 28.862 9.52083 29.3568 9.46875 29.9688V30.6523C9.52083 30.8216 9.54688 31.2253 9.54688 31.8633L9.46875 31.9023V31.9805H9.33203L9.29297 32C9.25391 32 9.16276 31.9935 9.01953 31.9805H7.76953L7.73047 32C7.69141 32 7.66536 31.9935 7.65234 31.9805H7.04688ZM34.0977 0.710938H42.9648C43.1471 0.736979 43.2383 0.821615 43.2383 0.964844V22.9961H60.3086C60.4779 23.0352 60.5625 23.1263 60.5625 23.2695V31.7461C60.5625 31.9154 60.4779 32 60.3086 32H34.0977C33.9284 32 33.8438 31.9154 33.8438 31.7461V0.964844C33.8698 0.795573 33.9544 0.710938 34.0977 0.710938ZM63.2578 0.75C63.2708 0.736979 63.2773 0.723958 63.2773 0.710938C63.4076 0.723958 63.5378 0.736979 63.668 0.75H93.2969L93.5117 0.710938C93.5508 0.723958 93.5833 0.736979 93.6094 0.75H93.9609V0.945312C94.013 0.997396 94.0391 1.04948 94.0391 1.10156V10.5742C90.3932 16.3424 88.3164 19.5 87.8086 20.0469H78.3359V19.9297C79.651 17.5729 81.6367 14.2396 84.293 9.92969V9.79297H72.1055V22.918H93.7852C93.9544 22.944 94.0391 23.0286 94.0391 23.1719V31.6094C94.0391 31.7396 93.9089 31.8698 93.6484 32H63.1406C63.0104 32 62.8802 31.8698 62.75 31.6094V0.75H63.2578ZM96.5195 0.710938H105.27C105.439 0.736979 105.523 0.821615 105.523 0.964844V12.1758H118.16V0.964844C118.186 0.795573 118.277 0.710938 118.434 0.710938H127.301C127.47 0.736979 127.555 0.821615 127.555 0.964844V11.3945L122.594 16.4922C124.742 18.5104 126.396 20.1576 127.555 21.4336V31.7461C127.555 31.9154 127.47 32 127.301 32H118.434C118.251 32 118.16 31.9154 118.16 31.7461V20.6523H105.777C105.608 20.6784 105.523 20.7695 105.523 20.9258V31.7461C105.523 31.9154 105.439 32 105.27 32H96.5195C96.3503 32 96.2656 31.9154 96.2656 31.7461V21.4336L101.09 16.6094V16.3555C101.077 16.2383 99.599 14.7604 96.6562 11.9219L96.2656 11.3945V0.964844C96.2917 0.795573 96.3763 0.710938 96.5195 0.710938ZM134.371 32H130.152C129.983 32 129.898 31.9154 129.898 31.7461V1.00391C129.924 0.834635 130.009 0.75 130.152 0.75H139.352V32.0195H134.371V32ZM141.461 29.5586V0.652344H169.742V1.0625C169.742 1.07552 169.749 1.08854 169.762 1.10156V9.53906C169.762 9.70833 169.677 9.79297 169.508 9.79297H150.816V22.918H168.082C169.202 22.918 169.762 23.0482 169.762 23.3086V31.6094C169.762 31.6745 169.749 31.7266 169.723 31.7656V32.0195H141.441V29.5586H141.461ZM181.227 9.87109V16.5117H193.199L193.863 16.375V13.25C193.863 12.9635 193.818 12.7487 193.727 12.6055L193.863 11.8242V9.87109H181.227ZM203.062 1.0625C203.076 1.08854 203.089 1.11458 203.102 1.14062V31.6094C203.102 31.7396 202.971 31.8698 202.711 32H194.117C193.948 32 193.863 31.9154 193.863 31.7461V25.4961H181.227V31.7461C181.227 31.9154 181.142 32 180.973 32H171.852V7.64453L178.746 0.886719C178.811 0.886719 178.87 0.880208 178.922 0.867188V0.710938H203.062V1.0625ZM205.777 0.710938H214.645C214.827 0.736979 214.918 0.821615 214.918 0.964844V22.9961H231.988C232.158 23.0352 232.242 23.1263 232.242 23.2695V31.7461C232.242 31.9154 232.158 32 231.988 32H205.777C205.608 32 205.523 31.9154 205.523 31.7461V0.964844C205.549 0.795573 205.634 0.710938 205.777 0.710938ZM253.766 9.87109V22.918H266.363V9.87109H253.766ZM268.531 0.710938V0.75C269.013 1.01042 270.797 2.77474 273.883 6.04297C274.521 6.42057 275.126 7.02604 275.699 7.85938V24.8516C275.699 24.9297 273.323 27.3125 268.57 32L268.473 31.9805H244.586V31.5508C244.573 31.5247 244.56 31.4987 244.547 31.4727V0.710938H268.531ZM278.375 0.75C278.388 0.736979 278.395 0.723958 278.395 0.710938C278.525 0.723958 278.655 0.736979 278.785 0.75H308.414L308.629 0.710938C308.668 0.723958 308.701 0.736979 308.727 0.75H309.078V0.945312C309.13 0.997396 309.156 1.04948 309.156 1.10156V10.5742C305.51 16.3424 303.434 19.5 302.926 20.0469H293.453V19.9297C294.768 17.5729 296.754 14.2396 299.41 9.92969V9.79297H287.223V22.918H308.902C309.072 22.944 309.156 23.0286 309.156 23.1719V31.6094C309.156 31.7396 309.026 31.8698 308.766 32H278.258C278.128 32 277.997 31.8698 277.867 31.6094V0.75H278.375ZM311.832 0.75H320.699C320.868 0.776042 320.953 0.860677 320.953 1.00391V23.1523H333.199C333.316 23.1523 333.447 23.0221 333.59 22.7617V18.8555C333.59 18.3346 333.544 18.0742 333.453 18.0742L333.59 16.7656V1.00391C333.616 0.834635 333.701 0.75 333.844 0.75H342.574C342.743 0.776042 342.828 0.860677 342.828 1.00391V23.0156C337.867 27.8854 334.697 30.8802 333.316 32H329.547C328.961 32 328.44 31.9544 327.984 31.8633C327.529 31.9544 327.008 32 326.422 32H324.215C324.124 32 324.078 31.9544 324.078 31.8633L323.824 32H320.953C317.294 28.6016 314.169 25.6068 311.578 23.0156V1.00391C311.604 0.834635 311.689 0.75 311.832 0.75ZM345.68 0.75C345.693 0.736979 345.699 0.723958 345.699 0.710938C345.829 0.723958 345.96 0.736979 346.09 0.75H375.719L375.934 0.710938C375.973 0.723958 376.005 0.736979 376.031 0.75H376.383V0.945312C376.435 0.997396 376.461 1.04948 376.461 1.10156V10.5742C372.815 16.3424 370.738 19.5 370.23 20.0469H360.758V19.9297C362.073 17.5729 364.059 14.2396 366.715 9.92969V9.79297H354.527V22.918H376.207C376.376 22.944 376.461 23.0286 376.461 23.1719V31.6094C376.461 31.7396 376.331 31.8698 376.07 32H345.562C345.432 32 345.302 31.8698 345.172 31.6094V0.75H345.68ZM379.137 0.710938H388.004C388.186 0.736979 388.277 0.821615 388.277 0.964844V22.9961H405.348C405.517 23.0352 405.602 23.1263 405.602 23.2695V31.7461C405.602 31.9154 405.517 32 405.348 32H379.137C378.967 32 378.883 31.9154 378.883 31.7461V0.964844C378.909 0.795573 378.993 0.710938 379.137 0.710938ZM408.238 0.652344H439.078C439.247 0.678385 439.332 0.763021 439.332 0.90625V31.7461C439.332 31.9154 439.247 32 439.078 32H408.238C408.069 32 407.984 31.9154 407.984 31.7461V0.90625C408.01 0.736979 408.095 0.652344 408.238 0.652344ZM417.711 9.96875V23.1133H429.801C429.97 23.1133 430.055 23.0286 430.055 22.8594V9.96875H417.711ZM442.066 0.710938H465.797C470.497 5.22917 472.848 7.53385 472.848 7.625V20.5352C472.848 20.6654 470.543 22.9635 465.934 27.4297H451.07V31.7461C451.07 31.9154 450.986 32 450.816 32H442.066C441.897 32 441.812 31.9154 441.812 31.7461V0.964844C441.839 0.795573 441.923 0.710938 442.066 0.710938ZM451.07 9.83203V18.3086L450.934 18.5625H463.59V9.83203H451.07ZM475.445 0.75C475.458 0.736979 475.465 0.723958 475.465 0.710938C475.595 0.723958 475.725 0.736979 475.855 0.75H505.484L505.699 0.710938C505.738 0.723958 505.771 0.736979 505.797 0.75H506.148V0.945312C506.201 0.997396 506.227 1.04948 506.227 1.10156V10.5742C502.581 16.3424 500.504 19.5 499.996 20.0469H490.523V19.9297C491.839 17.5729 493.824 14.2396 496.48 9.92969V9.79297H484.293V22.918H505.973C506.142 22.944 506.227 23.0286 506.227 23.1719V31.6094C506.227 31.7396 506.096 31.8698 505.836 32H475.328C475.198 32 475.068 31.8698 474.938 31.6094V0.75H475.445ZM508.844 0.808594H532.496C532.704 0.808594 535.087 3.14583 539.645 7.82031V20.5547L535.23 25.1055C535.582 25.3789 537.359 27.6315 540.562 31.8633L540.289 32H529.371C527.379 29.2786 526.383 27.8073 526.383 27.5859H517.672V31.7461C517.672 31.9154 517.587 32 517.418 32H508.844C508.714 32 508.583 31.8698 508.453 31.6094V1.19922C508.453 1.06901 508.583 0.938802 508.844 0.808594ZM517.672 9.91016V18.3477C517.711 18.5299 517.802 18.6211 517.945 18.6211H530.289V9.77344H518.336L517.672 9.91016Z" fill="#E4E66B"></path>
</svg>