<svg xmlns="http://www.w3.org/2000/svg" width="220" height="95" fill="none" viewBox="0 0 220 95">
  <path fill="#E4E66B" d="M22.9 46.7H8.05l15.3-15.2H6.45V65h-1.5V30H27L11.7 45.2h11.2v1.5Zm30.44 16.8V65h-20.9V30h1.5v33.5h19.4Zm23.662-16.8h-14.85l15.3-15.2h-16.9v32h19.4V65h-20.9V30h22.05l-15.3 15.2h11.2v1.5Zm18.858-.15 9.8 18.45h-1.7l-8.95-16.85L86.06 65h-1.7l9.8-18.45L85.36 30h1.7l7.95 14.95L102.96 30h1.7l-8.8 16.55ZM113.58 65h-1.5V30h1.5v35Z"/>
  <path fill="#E66B6B" d="M130.7 67.4c-2.567 0-4.643-.467-6.23-1.4-1.54-.933-2.66-2.193-3.36-3.78-.7-1.633-1.05-3.453-1.05-5.46 0-2.473.467-5.04 1.4-7.7a34.43 34.43 0 0 1 3.85-7.77 36.754 36.754 0 0 1 5.6-6.65c2.147-2.007 4.433-3.593 6.86-4.76 2.473-1.167 4.97-1.75 7.49-1.75 2.8 0 4.853.63 6.16 1.89 1.307 1.26 1.96 2.777 1.96 4.55 0 .84-.14 1.727-.42 2.66a39.671 39.671 0 0 1-1.19 3.22 263.86 263.86 0 0 0-1.26 2.94 38.35 38.35 0 0 0-.77 1.82c-.747 0-1.26-.21-1.54-.63-.28-.42-.42-.98-.42-1.68 0-.793.163-1.727.49-2.8.327-1.073.7-2.123 1.12-3.15.467-1.073.7-2.147.7-3.22 0-1.073-.303-1.983-.91-2.73-.607-.747-1.587-1.12-2.94-1.12-2.473 0-4.807.653-7 1.96-2.193 1.26-4.2 2.963-6.02 5.11a37.367 37.367 0 0 0-4.62 6.93c-1.307 2.52-2.333 5.04-3.08 7.56-.7 2.473-1.05 4.713-1.05 6.72 0 2.24.467 4.083 1.4 5.53.98 1.4 2.753 2.1 5.32 2.1 3.08 0 5.95-1.213 8.61-3.64 2.66-2.473 4.737-5.623 6.23-9.45.56.327.84 1.027.84 2.1 0 1.82-.537 3.5-1.61 5.04s-2.473 2.87-4.2 3.99a21.578 21.578 0 0 1-5.32 2.59c-1.82.653-3.5.98-5.04.98Zm21.739-.77c-1.073-.233-1.796-.677-2.17-1.33a5.242 5.242 0 0 1-.49-2.24c0-1.027.327-2.077.98-3.15.654-1.12 1.237-1.96 1.75-2.52-1.026-.047-1.82-.35-2.38-.91-.56-.607-.84-1.12-.84-1.54 0-.327.14-.49.42-.49.234 0 .444.07.63.21.934.42 2.077.63 3.43.63.56-.84 1.47-2.077 2.73-3.71a293.42 293.42 0 0 1 4.48-5.6c1.727-2.1 3.524-4.2 5.39-6.3a136.4 136.4 0 0 1 5.6-5.81c1.867-1.82 3.57-3.267 5.11-4.34 1.587-1.12 2.87-1.68 3.85-1.68.934 0 1.75.28 2.45.84.747.56 1.33 1.12 1.75 1.68l.7.84c-.886 1.26-1.89 3.127-3.01 5.6-1.12 2.427-2.193 5.133-3.22 8.12-.98 2.987-1.82 5.903-2.52 8.75.7 0 1.33.303 1.89.91.607.607.91 1.237.91 1.89l-1.05-.49a4.07 4.07 0 0 0-2.24-.35c-.14.513-.326 1.307-.56 2.38a130.06 130.06 0 0 0-.56 3.36 20.576 20.576 0 0 0-.28 3.22v.91l.14.7c-1.026.233-1.773-.163-2.24-1.19-.42-1.027-.63-2.263-.63-3.71 0-2.1.304-4.013.91-5.74-4.526.187-8.143.56-10.85 1.12-2.66.56-4.526 1.05-5.6 1.47a35.61 35.61 0 0 0-2.66 4.41c-.84 1.587-1.446 2.94-1.82 4.06Zm6.44-11.55c1.54-.28 3.29-.537 5.25-.77a170.03 170.03 0 0 1 5.67-.7c1.774-.187 3.15-.257 4.13-.21.187-.653.514-1.773.98-3.36a164.38 164.38 0 0 1 1.75-5.67c.747-2.147 1.634-4.41 2.66-6.79a59.364 59.364 0 0 1 3.5-6.86c-.14-.233-.373-.35-.7-.35-.7 0-1.68.49-2.94 1.47-1.213.933-2.613 2.17-4.2 3.71-1.54 1.54-3.15 3.243-4.83 5.11a254.107 254.107 0 0 0-4.76 5.6 250.005 250.005 0 0 0-3.99 5.11c-1.12 1.54-1.96 2.777-2.52 3.71Zm29.904 10.71c-1.353 0-2.45-.233-3.29-.7-.793-.513-1.377-1.097-1.75-1.75-.327-.7-.49-1.33-.49-1.89 0-2.333.653-4.9 1.96-7.7a86.538 86.538 0 0 1 4.62-8.33 132.26 132.26 0 0 0 3.57-6.09c1.213-2.24 2.24-4.363 3.08-6.37.84-2.053 1.26-3.757 1.26-5.11.28-.093.49-.14.63-.14.747 0 1.33.443 1.75 1.33.42.887.63 1.703.63 2.45 0 .747-.233 1.75-.7 3.01a40.505 40.505 0 0 1-1.82 3.99 112.24 112.24 0 0 1-3.5 6.3 128.754 128.754 0 0 0-3.57 6.23c-.373.747-.887 1.727-1.54 2.94a32.668 32.668 0 0 0-1.75 3.64c-.513 1.213-.77 2.287-.77 3.22 0 1.167.63 1.75 1.89 1.75 1.587 0 3.173-.187 4.76-.56 1.633-.373 3.29-.56 4.97-.56 1.26 0 2.357.117 3.29.35.98.233 1.493.91 1.54 2.03a1.549 1.549 0 0 0-.49-.07h-.49c-.887 0-2.007.117-3.36.35-1.307.187-2.66.42-4.06.7a145.27 145.27 0 0 0-3.78.7c-1.167.187-2.03.28-2.59.28Z"/>
</svg>
