<svg xmlns="http://www.w3.org/2000/svg" width="267" height="109" fill="none" viewBox="0 0 267 109">
  <path fill="#E4E66B" d="M10.059 69.976 9.937 70H1.782c-.211 0-.317-.106-.317-.317V31.255c.032-.212.138-.317.317-.317H40.21c.212.032.317.138.317.317v10.742c0 .228-.105.342-.317.342H13.184v5.371H34.35c.325.098.488.423.488.977v2.93c0 .357-.057.626-.171.805l.17.976v5.054c0 .163-.219.375-.658.635H13.184v6.519c0 .472-.033 1.09-.098 1.855v.854c.065.212.098.717.098 1.514l-.098.049v.098h-.171l-.049.024c-.049 0-.162-.008-.342-.024h-1.562l-.049.024c-.049 0-.081-.008-.098-.024h-.756Zm33.813-39.087h11.084c.228.032.342.138.342.317v27.54h21.338c.211.048.317.162.317.34v10.597c0 .211-.106.317-.317.317H43.872c-.212 0-.317-.106-.317-.317V31.206c.032-.212.138-.317.317-.317Zm36.45.049c.016-.017.025-.033.025-.05l.488.05h37.036l.269-.05c.048.017.089.033.122.05h.439v.244c.065.065.098.13.098.195v11.84c-4.557 7.211-7.153 11.158-7.788 11.842H99.17v-.147c1.644-2.946 4.126-7.112 7.446-12.5v-.17H91.382v16.406h27.099c.212.032.318.138.318.317v10.547c0 .162-.163.325-.488.488H80.176c-.163 0-.326-.163-.489-.488V30.937h.635Zm41.577-.05h10.938c.212.033.317.139.317.318V45.22h15.796V31.206c.033-.212.147-.317.342-.317h11.084c.212.032.317.138.317.317v13.037l-6.201 6.372c2.686 2.523 4.753 4.582 6.201 6.177v12.89c0 .212-.105.318-.317.318h-11.084c-.228 0-.342-.106-.342-.317V55.815h-15.478c-.212.033-.318.147-.318.342v13.526c0 .211-.105.317-.317.317h-10.938c-.211 0-.317-.106-.317-.317V56.792l6.03-6.03v-.318c-.016-.146-1.863-1.994-5.542-5.542l-.488-.659V31.206c.033-.212.138-.317.317-.317ZM169.214 70h-5.274c-.211 0-.317-.106-.317-.317V31.255c.033-.212.138-.317.317-.317h11.499v39.086h-6.225V70Z"/>
  <path fill="#E66B6B" d="M182.8 77.6c-2.933 0-5.307-.533-7.12-1.6-1.76-1.067-3.04-2.507-3.84-4.32-.8-1.867-1.2-3.947-1.2-6.24 0-2.827.533-5.76 1.6-8.8a39.352 39.352 0 0 1 4.4-8.88c1.867-2.827 4-5.36 6.4-7.6 2.453-2.293 5.067-4.107 7.84-5.44 2.827-1.333 5.68-2 8.56-2 3.2 0 5.547.72 7.04 2.16 1.493 1.44 2.24 3.173 2.24 5.2 0 .96-.16 1.973-.48 3.04a45.349 45.349 0 0 1-1.36 3.68 332.447 332.447 0 0 0-1.44 3.36c-.427.96-.72 1.653-.88 2.08-.853 0-1.44-.24-1.76-.72-.32-.48-.48-1.12-.48-1.92 0-.907.187-1.973.56-3.2.373-1.227.8-2.427 1.28-3.6.533-1.227.8-2.453.8-3.68 0-1.227-.347-2.267-1.04-3.12-.693-.853-1.813-1.28-3.36-1.28-2.827 0-5.493.747-8 2.24-2.507 1.44-4.8 3.387-6.88 5.84a42.634 42.634 0 0 0-5.28 7.92c-1.493 2.88-2.667 5.76-3.52 8.64-.8 2.827-1.2 5.387-1.2 7.68 0 2.56.533 4.667 1.6 6.32 1.12 1.6 3.147 2.4 6.08 2.4 3.52 0 6.8-1.387 9.84-4.16 3.04-2.827 5.413-6.427 7.12-10.8.64.373.96 1.173.96 2.4 0 2.08-.613 4-1.84 5.76-1.227 1.76-2.827 3.28-4.8 4.56a24.67 24.67 0 0 1-6.08 2.96c-2.08.747-4 1.12-5.76 1.12Zm24.845-.88c-1.227-.267-2.053-.773-2.48-1.52a5.984 5.984 0 0 1-.56-2.56c0-1.173.373-2.373 1.12-3.6.747-1.28 1.413-2.24 2-2.88-1.173-.053-2.08-.4-2.72-1.04-.64-.693-.96-1.28-.96-1.76 0-.373.16-.56.48-.56.267 0 .507.08.72.24 1.067.48 2.373.72 3.92.72.64-.96 1.68-2.373 3.12-4.24 1.493-1.92 3.2-4.053 5.12-6.4 1.973-2.4 4.027-4.8 6.16-7.2 2.187-2.4 4.32-4.613 6.4-6.64 2.133-2.08 4.08-3.733 5.84-4.96 1.813-1.28 3.28-1.92 4.4-1.92 1.067 0 2 .32 2.8.96.853.64 1.52 1.28 2 1.92l.8.96c-1.013 1.44-2.16 3.573-3.44 6.4-1.28 2.773-2.507 5.867-3.68 9.28a137.148 137.148 0 0 0-2.88 10c.8 0 1.52.347 2.16 1.04.693.693 1.04 1.413 1.04 2.16l-1.2-.56a4.652 4.652 0 0 0-2.56-.4c-.16.587-.373 1.493-.64 2.72a143.765 143.765 0 0 0-.64 3.84c-.213 1.333-.32 2.56-.32 3.68v1.04l.16.8c-1.173.267-2.027-.187-2.56-1.36-.48-1.173-.72-2.587-.72-4.24 0-2.4.347-4.587 1.04-6.56-5.173.213-9.307.64-12.4 1.28-3.04.64-5.173 1.2-6.4 1.68-1.067 1.493-2.08 3.173-3.04 5.04-.96 1.813-1.653 3.36-2.08 4.64Zm7.36-13.2c1.76-.32 3.76-.613 6-.88a193.67 193.67 0 0 1 6.48-.8c2.027-.213 3.6-.293 4.72-.24.213-.747.587-2.027 1.12-3.84.533-1.867 1.2-4.027 2-6.48.853-2.453 1.867-5.04 3.04-7.76a67.67 67.67 0 0 1 4-7.84c-.16-.267-.427-.4-.8-.4-.8 0-1.92.56-3.36 1.68-1.387 1.067-2.987 2.48-4.8 4.24-1.76 1.76-3.6 3.707-5.52 5.84a288.47 288.47 0 0 0-5.44 6.4 280.578 280.578 0 0 0-4.56 5.84c-1.28 1.76-2.24 3.173-2.88 4.24Zm34.176 12.24c-1.547 0-2.8-.267-3.76-.8-.907-.587-1.574-1.253-2-2-.374-.8-.56-1.52-.56-2.16 0-2.667.746-5.6 2.24-8.8a98.786 98.786 0 0 1 5.28-9.52 152.386 152.386 0 0 0 4.08-6.96c1.386-2.56 2.56-4.987 3.52-7.28.96-2.347 1.44-4.293 1.44-5.84.32-.107.56-.16.72-.16.853 0 1.52.507 2 1.52s.72 1.947.72 2.8c0 .853-.267 2-.8 3.44-.534 1.387-1.227 2.907-2.08 4.56a128.965 128.965 0 0 1-4 7.2 146.671 146.671 0 0 0-4.08 7.12c-.427.853-1.014 1.973-1.76 3.36a37.153 37.153 0 0 0-2 4.16c-.587 1.387-.88 2.613-.88 3.68 0 1.333.72 2 2.16 2 1.813 0 3.626-.213 5.44-.64 1.866-.427 3.76-.64 5.68-.64 1.44 0 2.693.133 3.76.4 1.12.267 1.706 1.04 1.76 2.32a1.775 1.775 0 0 0-.56-.08h-.56c-1.014 0-2.294.133-3.84.4a84.79 84.79 0 0 0-4.64.8c-1.547.267-2.987.533-4.32.8-1.334.213-2.32.32-2.96.32Z"/>
</svg>
