<svg xmlns="http://www.w3.org/2000/svg" width="552" height="41" fill="none" viewBox="0 0 552 41">
  <path fill="#E4E66B" d="M54.395 39.83c-.048.113-.154.17-.317.17H42.994c-.228 0-.342-.106-.342-.317V12.24H33.18v27.442c0 .211-.106.317-.318.317H21.925c-.212 0-.318-.106-.318-.317V12.24h-9.472v27.442c0 .211-.106.317-.318.317H.71c-.163 0-.326-.163-.488-.488V1.157C.253.946.359.84.538.84h53.54c.228.032.342.138.342.317v1.758h.024v36.914h-.049Zm14.527-27.491v8.3h14.966l.83-.17v-3.907c0-.358-.057-.626-.171-.805l.17-.977v-2.44H68.923Zm27.295-11.01.049.097v38.086c0 .163-.163.325-.489.488H85.035c-.211 0-.317-.106-.317-.317V31.87H68.922v7.813c0 .211-.106.317-.317.317H57.203V9.556l8.618-8.448a.907.907 0 0 0 .22-.024V.889h30.176v.44ZM134.84 40h-7.935c-.211 0-.317-.106-.317-.317v-27.71H111.28c-.162 0-.325.162-.488.488v27.222c0 .211-.114.317-.342.317H99.366c-.211 0-.317-.106-.317-.317V1.206c.032-.212.138-.317.317-.317h38.477c.065.016.122.032.171.048h.293v16.748c0 .05.008.098.024.147a.276.276 0 0 0-.024.122v10.18c0 .033.008.074.024.123a.409.409 0 0 0-.024.122v10.547c0 .097.008.187.024.268a.22.22 0 0 1-.024.098v.806h-3.467V40ZM141.798.889h11.084c.228.032.342.138.342.317v27.71h15.478l.147-.806V1.377c0-.163.162-.326.488-.488h10.937c.212.032.318.138.318.317v38.477c0 .211-.106.317-.318.317h-27.05c-7.064-6.624-10.979-10.376-11.744-11.255V1.206c.033-.212.139-.317.318-.317Zm50.268 39.087-.122.024h-8.154c-.212 0-.317-.106-.317-.317V1.255c.032-.212.138-.317.317-.317h38.428c.211.032.317.138.317.317v10.742c0 .228-.106.342-.317.342h-27.027v5.371h21.167c.326.098.489.423.489.976v2.93c0 .358-.057.627-.171.806l.171.976v5.054c0 .163-.22.374-.659.635h-20.997v6.518c0 .473-.032 1.091-.097 1.856v.854c.065.212.097.717.097 1.514l-.097.049v.098h-.171l-.049.024c-.049 0-.163-.008-.342-.024h-1.562l-.049.024c-.049 0-.081-.008-.098-.024h-.757Zm44.825-27.637v8.3h14.965l.831-.17v-3.907c0-.358-.057-.626-.171-.805l.171-.977v-2.44h-15.796Zm27.295-11.01.048.097v38.086c0 .163-.162.325-.488.488h-10.742c-.212 0-.317-.106-.317-.317V31.87h-15.796v7.813c0 .211-.106.317-.318.317h-11.401V9.556l8.618-8.448a.911.911 0 0 0 .22-.024V.889h30.176v.44Zm2.832 35.62V.814h35.351v.513c0 .016.008.033.025.049v10.547c0 .211-.106.317-.318.317h-23.364v16.407h21.582c1.4 0 2.1.162 2.1.488v10.376a.351.351 0 0 1-.049.195v.317h-35.352v-3.076h.025Zm51.538-24.781-.049-.024H305.47c-.212 0-.318-.114-.318-.342V1.206c.033-.212.139-.317.318-.317h38.305c.163 0 .326.162.489.488v10.425c0 .228-.106.342-.318.342h-13.281v27.88h-12.109V12.168ZM347.755.888h11.084c.228.033.342.139.342.318v27.71h15.478l.147-.806V1.377c0-.163.162-.326.488-.488h10.937c.212.032.318.138.318.317v38.477c0 .211-.106.317-.318.317h-27.05c-7.064-6.624-10.979-10.376-11.743-11.255V1.206c.032-.212.138-.317.317-.317Zm42.163.123h29.565c.261 0 3.239 2.921 8.936 8.764v15.918l-5.518 5.689c.44.342 2.661 3.157 6.665 8.447l-.341.171h-13.648c-2.49-3.402-3.735-5.24-3.735-5.518h-10.889v5.2c0 .212-.106.318-.317.318h-10.718c-.163 0-.326-.163-.488-.488V1.499c0-.163.162-.326.488-.488Zm11.035 11.377v10.547c.049.227.163.341.342.341h15.43v-11.06h-14.942l-.83.172ZM432.691.938c.017-.017.025-.033.025-.05l.488.05h37.036l.269-.05a.962.962 0 0 1 .122.05h.439v.244c.065.065.098.13.098.195v11.84c-4.557 7.211-7.153 11.158-7.788 11.842h-11.841v-.147c1.644-2.946 4.126-7.113 7.446-12.5v-.17h-15.234v16.405h27.1c.211.033.317.139.317.318v10.547c0 .163-.163.325-.488.488h-38.135c-.163 0-.326-.163-.488-.488V.937h.634Zm41.748.073h29.566c.26 0 3.239 2.921 8.935 8.764v15.918l-5.517 5.689c.439.342 2.661 3.157 6.665 8.447l-.342.171h-13.647c-2.491-3.402-3.736-5.24-3.736-5.518h-10.888v5.2c0 .212-.106.318-.318.318h-10.718c-.162 0-.325-.163-.488-.488V1.499c0-.163.163-.326.488-.488Zm11.036 11.377v10.547c.048.227.162.341.341.341h15.43v-11.06h-14.941l-.83.172Zm65.283 27.588-.049.024h-33.081c-.212 0-.317-.106-.317-.317v-10.45c0-.146.162-.309.488-.488 8.089.114 13.411.171 15.967.171-1.351-1.628-6.348-6.787-14.991-15.479-.081 0-.569-.545-1.464-1.635V1.206c.032-.212.138-.317.317-.317h32.934c.212.032.318.138.318.317v10.596c0 .228-.106.342-.318.342h-15.82v.146c7.764 8.09 13.192 13.623 16.284 16.602 0 .016.009.024.025.024v3.76c0 .537-.008 1.082-.025 1.636v4.15c.017.39.025.846.025 1.367l-.025.024v.123h-.268Z"/>
</svg>
