<svg xmlns="http://www.w3.org/2000/svg" width="410" height="41" fill="none" viewBox="0 0 410 41">
  <path fill="#E4E66B" d="M1.026.889H30.69c5.876 5.647 8.814 8.528 8.814 8.642V25.67c0 .163-2.88 3.035-8.643 8.618h-18.58v5.396c0 .211-.106.317-.317.317H1.026c-.211 0-.317-.106-.317-.317V1.206C.742.994.847.889 1.026.889ZM12.281 12.29v10.596l-.17.317h15.82V12.29H12.28ZM42.848 1.01h29.565c.26 0 3.239 2.922 8.936 8.765v15.918l-5.518 5.689c.44.342 2.661 3.157 6.665 8.447l-.342.171H68.507c-2.49-3.402-3.736-5.24-3.736-5.518H53.884v5.2c0 .212-.106.318-.318.318H42.848c-.163 0-.326-.163-.489-.488V1.499c0-.163.163-.326.489-.488Zm11.035 11.378v10.547c.049.227.163.341.342.341h15.43v-11.06H54.712l-.83.172ZM85.548.815h38.55c.211.033.317.139.317.318v38.55c0 .211-.106.317-.317.317h-38.55c-.212 0-.317-.106-.317-.317V1.133c.032-.212.138-.318.317-.318Zm11.84 11.646v16.43h15.113c.212 0 .317-.105.317-.317V12.461h-15.43Zm29.883 24.487V.815h35.352v.513c0 .016.008.033.024.049v10.547c0 .211-.105.317-.317.317h-23.364v16.407h21.582c1.4 0 2.099.162 2.099.488v10.376a.352.352 0 0 1-.048.195v.317h-35.352v-3.076h.024ZM165.797.938c.016-.017.024-.033.024-.05l.489.05h37.036l.268-.05c.049.017.09.033.122.05h.44v.244c.065.065.097.13.097.195v11.84c-4.557 7.211-7.153 11.158-7.788 11.842h-11.84v-.147c1.643-2.946 4.126-7.113 7.446-12.5v-.17h-15.235v16.405h27.1c.212.033.317.139.317.318v10.547c0 .163-.162.325-.488.488H165.65c-.162 0-.325-.163-.488-.488V.937h.635Zm52.783 11.4v16.31h15.747v-16.31H218.58ZM237.037.889v.05c.602.325 2.832 2.53 6.69 6.616.797.472 1.554 1.229 2.27 2.27v21.24c0 .098-2.97 3.077-8.911 8.936l-.122-.024h-29.859v-.538l-.048-.097V.889h29.98Zm12.476 0h11.084c.228.033.341.139.341.318v27.71h15.479l.146-.806V1.377c0-.163.163-.326.489-.488h10.937c.212.032.318.138.318.317v38.477c0 .211-.106.317-.318.317h-27.051c-7.063-6.624-10.978-10.376-11.743-11.255V1.206c.033-.212.139-.317.318-.317Zm42.163.123h29.565c.261 0 3.239 2.921 8.936 8.764v15.918l-5.518 5.689c.44.342 2.661 3.157 6.665 8.447l-.342.171h-13.647c-2.49-3.402-3.735-5.24-3.735-5.518h-10.889v5.2c0 .212-.106.318-.317.318h-10.718c-.163 0-.326-.163-.488-.488V1.499c0-.163.162-.326.488-.488Zm11.035 11.377v10.547c.049.227.163.341.342.341h15.429v-11.06h-14.941l-.83.172ZM334.449.938c.016-.017.025-.033.025-.05l.488.05h37.036l.269-.05c.048.017.089.033.122.05h.439v.244c.065.065.098.13.098.195v11.84c-4.558 7.211-7.154 11.158-7.788 11.842h-11.841v-.147c1.644-2.946 4.126-7.113 7.446-12.5v-.17h-15.234v16.405h27.099c.212.033.318.139.318.318v10.547c0 .163-.163.325-.488.488h-38.135c-.163 0-.326-.163-.489-.488V.937h.635Zm75.196 39.038-.049.024h-33.081c-.212 0-.318-.106-.318-.317v-10.45c0-.146.163-.309.489-.488 8.089.114 13.411.171 15.966.171-1.351-1.628-6.347-6.787-14.99-15.479-.081 0-.57-.545-1.465-1.635V1.206c.033-.212.139-.317.318-.317h32.934c.212.032.318.138.318.317v10.596c0 .228-.106.342-.318.342h-15.82v.146c7.764 8.09 13.192 13.623 16.284 16.602 0 .016.008.024.025.024v3.76a56.7 56.7 0 0 1-.025 1.636v4.15c.016.39.025.846.025 1.367l-.025.024v.123h-.268Z"/>
</svg>
